<svg xmlns="http://www.w3.org/2000/svg" viewBox="0 0 436.14 29.24"><defs><style>.cls-1{fill:#333F49;}</style></defs><g id="Layer_2" data-name="Layer 2"><g id="Layer_1-2" data-name="Layer 1"><g id="bf288138-dc28-4cee-887a-0b00013fc227"><g id="b73a5c0e-38ed-4277-a265-e318c962bc0a"><path class="cls-1" d="M37.41,10H28.83c-.09-2.06-1.27-3.12-3.56-3.16H13.76a6.22,6.22,0,0,0-3.39.7,3.81,3.81,0,0,0-1.46,3.06c-.08,1-.12,2.55-.12,4.67,0,2.63.21,4.37.65,5.2q1,1.93,5,2.08H21.2c2.39,0,3.84,0,4.39-.08a4.23,4.23,0,0,0,2.55-.92A3.44,3.44,0,0,0,28.9,19V18.1h-11V12.76H37.41v4A38.26,38.26,0,0,1,37,23.68q-1.11,5.3-8,5.52c-1,0-4.69,0-11,0-4.09,0-7.06-.07-8.88-.21Q2.53,28.49.92,23.84,0,21.34,0,15,0,8,1.05,5.23A7.16,7.16,0,0,1,6.33.83Q9.49,0,19.38,0C24.51,0,28,.09,29.79.29Q35.87.85,37,5.36A20.22,20.22,0,0,1,37.41,10"/><path class="cls-1" d="M78.71.25h8.76v14.9a1.82,1.82,0,0,0,0,.33A21,21,0,0,0,87.66,19c.33,1.84,1.63,2.84,3.87,3.13a40.43,40.43,0,0,0,4.67.19c3.14,0,5.34-.06,6.61-.15,2-.16,3.2-.91,3.67-2.25a13.18,13.18,0,0,0,.42-4V.25h8.76v15a37.79,37.79,0,0,1-.48,7.36c-.66,2.8-2.56,4.72-5.69,5.74a23.51,23.51,0,0,1-6.3.85c1.16,0-.92,0-6.37,0-4.44,0-7.53-.09-9.29-.25q-7.05-.69-8.27-6.26a35.91,35.91,0,0,1-.51-7Z"/><polygon class="cls-1" points="157.42 28.98 157.42 0.25 171.35 0.25 188.79 22.11 188.54 0.25 196.84 0.25 196.84 28.98 182.77 28.98 165.59 7.33 165.84 28.98 157.42 28.98"/><polygon class="cls-1" points="238.8 28.98 238.8 0.25 252.74 0.25 270.19 22.11 269.93 0.25 278.24 0.25 278.24 28.98 264.17 28.98 246.97 7.33 247.23 28.98 238.8 28.98"/><path class="cls-1" d="M333.56,17.86h12.36L339.67,6.43ZM317.75,29,333.92.24h11.73L361.38,29h-9.55L349,23.83h-18.6L327.61,29Z"/><path class="cls-1" d="M408.6,14.7h13.67a11.1,11.1,0,0,0,3.58-.35c1-.41,1.48-1.36,1.48-2.88,0-1.84-.34-3-1-3.48s-1.84-.65-3.74-.65h-14ZM399.88,29V.24H424.7a27.12,27.12,0,0,1,6.16.49,6.11,6.11,0,0,1,4.52,3.67,14.93,14.93,0,0,1,.75,5.18c0,3.45-.81,5.76-2.44,6.91-.87.61-2.72,1.13-5.56,1.54l1.43.08a9.47,9.47,0,0,1,4.1.8c1.38.87,2.08,2.71,2.08,5.52V29h-8.85V25.4c0-2.16-.77-3.35-2.3-3.58a19.32,19.32,0,0,0-2.52-.11H408.6V29Z"/></g></g></g></g></svg>