<svg xmlns="http://www.w3.org/2000/svg" viewBox="0 0 257.38 17.27"><defs><style>.cls-1{fill:#e5e5e6;}</style></defs><g id="Layer_2" data-name="Layer 2"><g id="Layer_1-2" data-name="Layer 1"><path class="cls-1" d="M22.08,5.88H17C17,4.65,16.27,4,14.92,4H11.76c-.55,0-1.22,0-2,0L8.1,4a3.73,3.73,0,0,0-2,.41,2.24,2.24,0,0,0-.85,1.81c-.06.59-.08,1.5-.08,2.75a8,8,0,0,0,.38,3.07c.4.77,1.38,1.17,3,1.23.22,0,1.56,0,4,0,1.41,0,2.27,0,2.58-.05a2.5,2.5,0,0,0,1.51-.56,2.07,2.07,0,0,0,.45-1.5c0-.11,0-.27,0-.51H10.51V7.53H22.08V9.89A21.61,21.61,0,0,1,21.81,14q-.66,3.12-4.75,3.24c-.6,0-2.77,0-6.46,0-2.42,0-4.17-.05-5.25-.13-2.57-.2-4.18-1.21-4.83-3.05A17.76,17.76,0,0,1,0,8.85,18.23,18.23,0,0,1,.62,3.09,4.2,4.2,0,0,1,3.74.49,37.39,37.39,0,0,1,11.44,0c3,0,5.07.05,6.14.17q3.59.33,4.25,3a11.53,11.53,0,0,1,.25,2.72"/><path class="cls-1" d="M46.45.15h5.17V8.94a.56.56,0,0,0,0,.2,13.92,13.92,0,0,0,.11,2.1A2.3,2.3,0,0,0,54,13.08a25.26,25.26,0,0,0,2.75.11c1.86,0,3.15,0,3.9-.09,1.17-.09,1.88-.53,2.15-1.32a8.26,8.26,0,0,0,.25-2.4V.15h5.17V9A22.2,22.2,0,0,1,68,13.39a4.6,4.6,0,0,1-3.36,3.39,13.52,13.52,0,0,1-3.71.49c.68,0-.57,0-3.76,0-2.62,0-4.45-.05-5.48-.15-2.78-.27-4.4-1.5-4.89-3.69a20.77,20.77,0,0,1-.3-4.15Z"/><polygon class="cls-1" points="92.9 17.1 92.9 0.14 101.12 0.14 111.42 13.05 111.27 0.14 116.17 0.14 116.17 17.1 107.86 17.1 97.72 4.33 97.87 17.1 92.9 17.1"/><polygon class="cls-1" points="140.93 17.1 140.93 0.14 149.15 0.14 159.45 13.05 159.3 0.14 164.2 0.14 164.2 17.1 155.9 17.1 145.75 4.33 145.9 17.1 140.93 17.1"/><path class="cls-1" d="M196.85,10.54h7.29L200.45,3.8Zm-9.33,6.56,9.54-17H204l9.28,17h-5.63l-1.7-3H195l-1.61,3Z"/><path class="cls-1" d="M241.13,8.67h8.07a7,7,0,0,0,2.11-.21c.58-.24.87-.81.87-1.7,0-1.08-.19-1.76-.58-2.06a4.17,4.17,0,0,0-2.21-.38h-8.26ZM236,17.1V.14h14.65a16.22,16.22,0,0,1,3.64.29,3.63,3.63,0,0,1,2.66,2.19,8.79,8.79,0,0,1,.44,3.05q0,3.06-1.44,4.08a8.4,8.4,0,0,1-3.28.91l.84.05a5.51,5.51,0,0,1,2.42.48c.82.5,1.23,1.58,1.23,3.23V17.1h-5.22V15c0-1.27-.46-2-1.36-2.11a11.78,11.78,0,0,0-1.49-.07h-8V17.1Z"/></g></g></svg>