<svg xmlns="http://www.w3.org/2000/svg" viewBox="0 0 439.5 52.16"><defs><style>.cls-1,.cls-2{fill:#35c3e3;}.cls-1,.cls-3{fill-rule:evenodd;}.cls-3{fill:#144d9b;}</style></defs><g id="Layer_2" data-name="Layer 2"><g id="Layer_1-2" data-name="Layer 1"><path class="cls-1" d="M248.12,30c-.94,4.39-.65,7.68.85,9.9s4.24,3.31,8.19,3.31A14.24,14.24,0,0,0,266.89,40c2.49-2.17,4.18-5.39,5.1-9.66q1.5-7-.83-10.61c-1.55-2.43-4.31-3.65-8.3-3.66a13.23,13.23,0,0,0-9.44,3.65,19.32,19.32,0,0,0-5.3,10.3Zm6.45,22.13c-8.54,0-14.63-2.09-18.25-5.92s-4.65-9.41-3.08-16.76q2.3-10.69,10.58-16.44t21.42-5.71q13,0,18.61,5.82T287.06,30q-2.32,10.85-10.55,16.42c-5.48,3.73-12.79,5.74-21.94,5.73Zm48.91-22.07q-1.41,6.58.85,9.9c1.51,2.21,4.24,3.31,8.19,3.32a14.28,14.28,0,0,0,9.73-3.24c2.48-2.17,4.18-5.38,5.1-9.66q1.48-7-.84-10.61c-1.55-2.43-4.3-3.65-8.29-3.66a13.27,13.27,0,0,0-9.44,3.65,19.35,19.35,0,0,0-5.3,10.3Zm6.45,22.07c-8.55,0-14.64-2-18.25-5.86S287,36.89,288.6,29.55q2.29-10.71,10.57-16.45t21.42-5.71q13,0,18.61,5.82t3.22,16.87Q340.1,40.91,331.87,46.5c-5.49,3.72-12.79,5.67-21.94,5.66ZM379.69,42l-2,10.18H340.36l9.26-44,14.76,0L357.15,42l22.54,0Zm15.61-4.82a.5.5,0,0,0,0,.12,10.44,10.44,0,0,0-.38,1.2,3.28,3.28,0,0,0,1.35,3.75c1.26.82,3.39,1.24,6.4,1.24a13.56,13.56,0,0,0,5.6-1,4.08,4.08,0,0,0,2.54-2.77c.38-1.78-1.88-3.22-6.77-4.35l-1.28-.29c-.32-.08-.77-.19-1.37-.32q-11.67-2.67-14.49-5.81a7.56,7.56,0,0,1-1.79-3.61,11.51,11.51,0,0,1,.14-4.68,14,14,0,0,1,7.71-9.72q6.35-3.33,17.17-3.32t15.17,3.15q4.49,3.14,3.1,9.64l-.11.5-13.5,0,0-.2a2.93,2.93,0,0,0-1.33-3.38q-1.8-1.16-5.76-1.16a12,12,0,0,0-4.91.81,3.4,3.4,0,0,0-2.17,2.34c-.39,1.8,2.24,3.33,7.86,4.6l2.54.56a63.07,63.07,0,0,1,8.45,2.43,15.81,15.81,0,0,1,4.09,2.39,7.87,7.87,0,0,1,2.48,4,11,11,0,0,1,0,5.28q-1.41,6.58-8.29,10.11t-18.39,3.53q-11.37,0-15.72-3.42t-2.73-11l.13-.64Z"/><path class="cls-2" d="M430.77,2.62h3.65a1.87,1.87,0,0,1,2,1.87,1.66,1.66,0,0,1-1.07,1.7v0c.73.19.94.9,1,1.59a3.67,3.67,0,0,0,.29,1.6h-1.49a7.78,7.78,0,0,1-.24-1.62c-.1-.72-.38-1-1.13-1h-1.49V9.4h-1.49Zm1.49,3.07h1.63c.67,0,1-.29,1-1s-.36-.94-1-.94h-1.63Z"/><path class="cls-2" d="M433.49,12a6,6,0,1,1,6-6A6,6,0,0,1,433.49,12Zm0-11.23A5.22,5.22,0,1,0,438.71,6,5.22,5.22,0,0,0,433.49.79Z"/><polygon class="cls-1" points="199.74 52.16 207.04 17.32 190.81 17.3 192.86 7.72 240.19 7.72 238.14 17.35 221.91 17.34 214.62 52.16 199.74 52.16 199.74 52.16"/><path class="cls-3" d="M38.32,41.6l-2,10.56H0L9.25,7.8H24L16.78,41.57M38.44,52.16,47.7,7.84l38.5,0-2,9.32-24,0-1.48,6.88,22.23,0-2,9.19-22.23,0-1.79,8.37,23.95,0-2,10.52Zm78.79-18.27-3.55-15.7L103,33.87l14.23,0ZM91.51,52.16H77L108.65,7.91l14,0,12.09,44.23h-14.1l-1.59-8.84-22.43,0-5.16,8.87Zm73-34.7h-7.09l-5.2,24.27h7.08c5,0,8.86-.94,11.53-2.82s4.45-4.94,5.35-9.13.36-7.21-1.57-9.25-5.31-3.07-10.1-3.07Zm-29,34.7L144.74,8l24.72,0q12.84,0,18.4,5.66T191.12,30q-2.22,10.36-9.77,15.77a33.45,33.45,0,0,1-19.78,6.37Z"/></g></g></svg>