<svg width="207" height="44" viewBox="0 0 207 44" fill="none" xmlns="http://www.w3.org/2000/svg">
<g clip-path="url(#clip0_1346_42216)">
<path d="M86.0766 8.80028V35.201H81.4931V14.5064H81.4198L73.2258 35.201H70.1878L61.7928 14.5064H61.7372V35.201H57.5045V8.80028H64.0772L71.6625 28.371H71.7725L79.7795 8.80028H86.0766ZM89.9095 10.8072C89.9026 10.4594 89.9706 10.1141 90.1088 9.79479C90.247 9.47551 90.4523 9.18969 90.7107 8.95673C91.2236 8.46805 91.9079 8.20031 92.6162 8.21115C92.9762 8.19988 93.3348 8.26177 93.6702 8.39307C94.0056 8.52438 94.3109 8.72237 94.5676 8.97506C94.8159 9.21083 95.0129 9.4954 95.146 9.8109C95.2792 10.1264 95.3456 10.466 95.3413 10.8084C95.3475 11.1514 95.2797 11.4918 95.1427 11.8062C95.0056 12.1207 94.8023 12.4019 94.5468 12.6308C94.0234 13.119 93.3293 13.3823 92.6138 13.3642C92.2598 13.3732 91.9075 13.3119 91.5772 13.184C91.247 13.056 90.9455 12.8638 90.69 12.6186C90.4393 12.3886 90.2402 12.1082 90.1057 11.7958C89.9712 11.4834 89.9044 11.1461 89.9095 10.806V10.8072ZM94.8255 16.275V35.201H90.3703V16.2738L94.8255 16.275ZM108.339 31.962C109.091 31.9438 109.834 31.7878 110.53 31.5019C111.318 31.1999 112.062 30.7911 112.739 30.2869V34.4292C111.981 34.852 111.166 35.1621 110.318 35.3495C109.342 35.5663 108.344 35.6713 107.344 35.6624C106.095 35.7197 104.848 35.5162 103.681 35.0647C102.515 34.6133 101.456 33.9238 100.571 33.0403C99.6856 32.1568 98.9943 31.0986 98.5408 29.9332C98.0873 28.7677 97.8816 27.5206 97.9367 26.2712C97.8331 23.5151 98.7885 20.8239 100.607 18.7501C102.386 16.7798 104.908 15.7948 108.173 15.7952C109.027 15.7978 109.878 15.906 110.705 16.1173C111.412 16.2778 112.096 16.5284 112.739 16.8629V21.1341C112.091 20.6529 111.382 20.2597 110.631 19.965C109.93 19.6922 109.184 19.5517 108.431 19.5506C107.641 19.5187 106.854 19.6547 106.121 19.9497C105.388 20.2446 104.726 20.6919 104.178 21.2618C103.051 22.529 102.469 24.1891 102.558 25.8825C102.509 26.6941 102.621 27.5073 102.888 28.2752C103.155 29.0432 103.571 29.7506 104.113 30.3566C104.668 30.9024 105.33 31.3269 106.058 31.6033C106.785 31.8796 107.562 32.0018 108.339 31.962ZM125.423 15.9633C125.744 15.9607 126.065 15.9854 126.381 16.0373C126.626 16.076 126.866 16.1374 127.099 16.2206V20.7307C126.784 20.5187 126.44 20.354 126.077 20.2418C125.55 20.0769 125 19.9993 124.448 20.012C123.911 20.0108 123.381 20.1346 122.9 20.3737C122.419 20.6127 122 20.9606 121.677 21.3895C120.923 22.3099 120.545 23.7275 120.545 25.6424V35.201H116.09V16.2738H120.545V19.2561H120.619C120.979 18.2845 121.619 17.4418 122.459 16.8354C123.33 16.238 124.368 15.9319 125.423 15.9609V15.9633ZM127.341 26.0151C127.341 22.8858 128.224 20.4066 129.992 18.5777C131.759 16.7488 134.214 15.8344 137.356 15.8344C140.314 15.8344 142.624 16.715 144.288 18.4763C145.951 20.2375 146.783 22.6142 146.782 25.6063C146.782 28.675 145.898 31.1175 144.131 32.9337C142.364 34.75 139.958 35.6581 136.914 35.6581C133.98 35.6581 131.652 34.796 129.927 33.0718C128.203 31.3476 127.341 28.9946 127.341 26.0127V26.0151ZM131.98 25.8685C131.98 27.844 132.428 29.3537 133.325 30.3975C133.808 30.9305 134.405 31.3479 135.071 31.6188C135.738 31.8896 136.457 32.0069 137.175 31.962C137.871 32.0067 138.568 31.8886 139.21 31.617C139.852 31.3454 140.422 30.9279 140.875 30.3975C141.722 29.3537 142.146 27.8072 142.146 25.7579C142.146 23.7208 141.707 22.1834 140.829 21.1457C140.372 20.6233 139.803 20.2117 139.163 19.9423C138.524 19.6728 137.831 19.5524 137.138 19.5904C136.422 19.5514 135.706 19.6782 135.047 19.9608C134.387 20.2433 133.802 20.6741 133.336 21.2196C132.432 22.3042 131.98 23.853 131.98 25.866V25.8685ZM153.409 21.2471C153.395 21.5265 153.441 21.8058 153.546 22.0652C153.651 22.3245 153.812 22.5576 154.017 22.7481C154.842 23.3334 155.748 23.7952 156.706 24.1188C158.134 24.5982 159.421 25.4237 160.452 26.5218C161.179 27.4388 161.561 28.5827 161.529 29.7528C161.553 30.5796 161.379 31.4002 161.022 32.1462C160.665 32.8923 160.135 33.5424 159.476 34.0423C158.108 35.1228 156.258 35.6628 153.925 35.6624C153.05 35.653 152.177 35.5574 151.32 35.377C150.489 35.2237 149.677 34.9798 148.899 34.6498V30.2662C149.707 30.8295 150.586 31.2817 151.514 31.6106C152.326 31.9195 153.185 32.0877 154.054 32.1081C154.821 32.1582 155.588 32.0125 156.282 31.6846C156.522 31.5381 156.715 31.3279 156.842 31.0777C156.969 30.8274 157.023 30.5469 157 30.2674C157.002 29.9685 156.936 29.6731 156.807 29.4035C156.678 29.1339 156.489 28.8972 156.255 28.7114C155.388 28.0897 154.436 27.5967 153.428 27.2478C152.091 26.7698 150.89 25.9726 149.93 24.9255C149.216 23.9861 148.852 22.8275 148.899 21.6486C148.885 20.837 149.062 20.0334 149.415 19.3026C149.768 18.5719 150.289 17.9344 150.934 17.4416C152.445 16.2916 154.311 15.7077 156.208 15.7916C156.956 15.7997 157.701 15.8735 158.436 16.0122C159.142 16.127 159.834 16.3184 160.499 16.583V20.8212C159.854 20.4017 159.162 20.0617 158.436 19.8085C157.687 19.5328 156.896 19.3894 156.098 19.385C155.403 19.3446 154.712 19.518 154.119 19.8819C153.894 20.0297 153.711 20.2325 153.587 20.471C153.463 20.7095 153.402 20.9759 153.409 21.2447V21.2471ZM163.442 26.0139C163.442 22.8845 164.326 20.4054 166.093 18.5765C167.861 16.7476 170.316 15.8331 173.458 15.8331C176.416 15.8331 178.726 16.7138 180.389 18.475C182.053 20.2363 182.884 22.6134 182.884 25.6063C182.884 28.675 182 31.1175 180.233 32.9337C178.466 34.75 176.06 35.6581 173.016 35.6581C170.083 35.6581 167.754 34.796 166.029 33.0718C164.305 31.3476 163.442 28.9946 163.442 26.0127V26.0139ZM168.082 25.8673C168.082 27.8428 168.53 29.3525 169.426 30.3963C169.91 30.9294 170.507 31.3468 171.173 31.6176C171.84 31.8884 172.559 32.0057 173.277 31.9608C173.973 32.0056 174.669 31.8875 175.312 31.6159C175.954 31.3444 176.524 30.9268 176.977 30.3963C177.824 29.3525 178.247 27.806 178.247 25.7566C178.247 23.7195 177.809 22.1821 176.931 21.1445C176.474 20.6221 175.905 20.2105 175.265 19.941C174.626 19.6716 173.933 19.5512 173.241 19.5891C172.524 19.5502 171.808 19.677 171.149 19.9595C170.489 20.2421 169.904 20.6729 169.438 21.2184C168.534 22.3038 168.082 23.853 168.082 25.866V25.8673ZM197.665 19.9204H191.03V35.1986H186.519V19.9204H183.352V16.2738H186.519V13.641C186.487 12.7361 186.643 11.8344 186.978 10.9929C187.312 10.1514 187.817 9.38838 188.461 8.752C189.121 8.11581 189.901 7.61916 190.757 7.29175C191.613 6.96434 192.526 6.8129 193.441 6.8465C193.921 6.84294 194.401 6.8705 194.878 6.929C195.253 6.97524 195.623 7.05856 195.982 7.17773V11.0278C195.734 10.9005 195.476 10.7958 195.209 10.7149C194.798 10.5864 194.369 10.5245 193.939 10.5316C193.537 10.5071 193.135 10.5729 192.762 10.7242C192.389 10.8756 192.055 11.1086 191.784 11.4061C191.23 12.1498 190.963 13.0678 191.03 13.9924V16.2756H197.665V12.0209L202.139 10.6587V16.2738H206.65V19.9191H202.139V28.7744C202.055 29.6458 202.279 30.519 202.774 31.2415C203.035 31.4984 203.349 31.6957 203.694 31.8196C204.039 31.9436 204.407 31.9913 204.772 31.9596C205.09 31.9494 205.404 31.8884 205.703 31.7787C206.036 31.6699 206.354 31.5216 206.651 31.3368V35.0177C206.205 35.2307 205.73 35.3795 205.242 35.4595C204.603 35.5926 203.953 35.6604 203.3 35.6618C201.422 35.6618 200.014 35.1617 199.075 34.1615C198.136 33.1613 197.666 31.6538 197.666 29.6391L197.665 19.9204Z" fill="white"/>
<path d="M21.2145 0H0.302887V20.9116H21.2145V0Z" fill="#F25022"/>
<path d="M44.3023 0H23.3907V20.9116H44.3023V0Z" fill="#7FBA00"/>
<path d="M21.2145 23.0878H0.302887V43.9994H21.2145V23.0878Z" fill="#00A4EF"/>
<path d="M44.3023 23.0878H23.3907V43.9994H44.3023V23.0878Z" fill="#FFB900"/>
</g>
<defs>
<clipPath id="clip0_1346_42216">
<rect width="206.347" height="44" fill="white" transform="translate(0.302887)"/>
</clipPath>
</defs>
</svg>
