<svg width="208" height="44" viewBox="0 0 208 44" fill="none" xmlns="http://www.w3.org/2000/svg">
<g clip-path="url(#clip0_792_82658)">
<path d="M86.6003 8.80022V35.2009H82.0168V14.5063H81.9435L73.7495 35.2009H70.7115L62.3165 14.5063H62.2609V35.2009H58.0282V8.80022H64.6009L72.1862 28.371H72.2962L80.3032 8.80022H86.6003ZM90.4333 10.8072C90.4263 10.4593 90.4943 10.114 90.6325 9.79473C90.7707 9.47545 90.976 9.18963 91.2345 8.95667C91.7473 8.46799 92.4316 8.20025 93.1399 8.21109C93.5 8.19982 93.8585 8.26171 94.1939 8.39301C94.5293 8.52432 94.8346 8.72231 95.0913 8.975C95.3396 9.21077 95.5366 9.49534 95.6697 9.81084C95.8029 10.1263 95.8693 10.466 95.865 10.8084C95.8712 11.1514 95.8035 11.4917 95.6664 11.8062C95.5293 12.1206 95.326 12.4019 95.0705 12.6308C94.5471 13.119 93.853 13.3823 93.1375 13.3641C92.7835 13.3731 92.4312 13.3119 92.101 13.1839C91.7707 13.0559 91.4692 12.8638 91.2137 12.6185C90.9631 12.3886 90.764 12.1082 90.6295 11.7958C90.4949 11.4834 90.4281 11.146 90.4333 10.8059V10.8072ZM95.3492 16.2749V35.2009H90.8941V16.2737L95.3492 16.2749ZM108.863 31.962C109.615 31.9437 110.357 31.7877 111.053 31.5018C111.842 31.1998 112.585 30.791 113.263 30.2869V34.4291C112.505 34.852 111.689 35.162 110.842 35.3495C109.866 35.5662 108.868 35.6712 107.868 35.6624C106.619 35.7197 105.371 35.5161 104.205 35.0647C103.039 34.6132 101.979 33.9238 101.094 33.0403C100.209 32.1567 99.518 31.0986 99.0645 29.9331C98.611 28.7676 98.4053 27.5205 98.4604 26.2711C98.3568 23.515 99.3122 20.8238 101.13 18.75C102.91 16.7797 105.432 15.7948 108.697 15.7952C109.551 15.7978 110.401 15.9059 111.229 16.1173C111.936 16.2778 112.619 16.5284 113.263 16.8628V21.134C112.615 20.6528 111.906 20.2597 111.155 19.9649C110.453 19.6922 109.707 19.5517 108.955 19.5506C108.165 19.5186 107.378 19.6546 106.645 19.9496C105.911 20.2446 105.249 20.6918 104.702 21.2617C103.575 22.5289 102.993 24.1891 103.082 25.8825C103.033 26.694 103.145 27.5072 103.412 28.2752C103.679 29.0431 104.095 29.7505 104.637 30.3565C105.192 30.9023 105.854 31.3269 106.581 31.6032C107.309 31.8796 108.086 32.0018 108.863 31.962ZM125.947 15.9632C126.268 15.9606 126.588 15.9854 126.905 16.0372C127.149 16.0759 127.39 16.1373 127.623 16.2205V20.7307C127.308 20.5186 126.964 20.3539 126.601 20.2418C126.074 20.0768 125.524 19.9992 124.972 20.012C124.435 20.0107 123.905 20.1345 123.424 20.3736C122.943 20.6127 122.524 20.9605 122.201 21.3895C121.446 22.3098 121.069 23.7274 121.069 25.6423V35.2009H116.613V16.2737H121.069V19.256H121.142C121.502 18.2844 122.143 17.4418 122.983 16.8353C123.854 16.238 124.892 15.9318 125.947 15.9608V15.9632ZM127.864 26.0151C127.864 22.8857 128.748 20.4066 130.515 18.5777C132.283 16.7488 134.737 15.8343 137.879 15.8343C140.837 15.8343 143.148 16.7149 144.811 18.4762C146.475 20.2375 147.306 22.6142 147.305 25.6062C147.305 28.6749 146.422 31.1174 144.655 32.9337C142.888 34.7499 140.482 35.6581 137.438 35.6581C134.504 35.6581 132.175 34.796 130.451 33.0718C128.727 31.3476 127.865 28.9945 127.864 26.0126V26.0151ZM132.504 25.8684C132.504 27.844 132.952 29.3537 133.848 30.3975C134.332 30.9305 134.929 31.3479 135.595 31.6187C136.262 31.8895 136.98 32.0069 137.699 31.962C138.394 32.0067 139.091 31.8885 139.734 31.617C140.376 31.3454 140.946 30.9279 141.399 30.3975C142.246 29.3537 142.669 27.8071 142.669 25.7578C142.669 23.7207 142.231 22.1833 141.353 21.1456C140.896 20.6232 140.326 20.2117 139.687 19.9422C139.047 19.6727 138.355 19.5524 137.662 19.5903C136.945 19.5514 136.23 19.6781 135.57 19.9607C134.911 20.2433 134.325 20.674 133.859 21.2196C132.955 22.3041 132.504 23.8529 132.504 25.866V25.8684ZM153.933 21.2471C153.918 21.5265 153.965 21.8057 154.07 22.0651C154.175 22.3245 154.336 22.5576 154.541 22.748C155.365 23.3334 156.271 23.7952 157.23 24.1188C158.658 24.5981 159.945 25.4237 160.976 26.5217C161.703 27.4388 162.084 28.5827 162.053 29.7527C162.077 30.5795 161.903 31.4001 161.546 32.1462C161.189 32.8923 160.659 33.5423 160 34.0422C158.632 35.1227 156.781 35.6628 154.449 35.6624C153.573 35.6529 152.701 35.5573 151.844 35.377C151.013 35.2236 150.201 34.9797 149.423 34.6497V30.2661C150.23 30.8294 151.11 31.2816 152.037 31.6106C152.85 31.9194 153.709 32.0877 154.578 32.108C155.344 32.1582 156.111 32.0124 156.806 31.6845C157.045 31.538 157.239 31.3279 157.366 31.0776C157.492 30.8274 157.547 30.5468 157.524 30.2673C157.526 29.9684 157.46 29.673 157.33 29.4034C157.201 29.1338 157.013 28.8972 156.779 28.7114C155.912 28.0897 154.96 27.5967 153.952 27.2477C152.614 26.7697 151.414 25.9726 150.454 24.9254C149.74 23.986 149.376 22.8274 149.423 21.6486C149.409 20.837 149.585 20.0334 149.939 19.3026C150.292 18.5718 150.812 17.9343 151.457 17.4416C152.969 16.2915 154.835 15.7077 156.732 15.7915C157.48 15.7996 158.225 15.8734 158.96 16.0121C159.666 16.127 160.357 16.3183 161.022 16.5829V20.8211C160.378 20.4016 159.685 20.0616 158.96 19.8085C158.211 19.5327 157.42 19.3894 156.621 19.385C155.927 19.3446 155.236 19.518 154.643 19.8818C154.418 20.0296 154.235 20.2324 154.111 20.4709C153.986 20.7095 153.925 20.9758 153.933 21.2446V21.2471ZM163.966 26.0139C163.966 22.8845 164.85 20.4053 166.617 18.5764C168.384 16.7475 170.839 15.8331 173.982 15.8331C176.94 15.8331 179.25 16.7137 180.913 18.475C182.576 20.2363 183.408 22.6133 183.408 25.6062C183.408 28.6749 182.524 31.1174 180.757 32.9337C178.989 34.7499 176.584 35.6581 173.54 35.6581C170.607 35.6581 168.278 34.796 166.553 33.0718C164.828 31.3476 163.966 28.9945 163.966 26.0126V26.0139ZM168.606 25.8672C168.606 27.8428 169.054 29.3525 169.95 30.3963C170.433 30.9293 171.03 31.3467 171.697 31.6175C172.363 31.8884 173.082 32.0057 173.8 31.9607C174.496 32.0055 175.193 31.8874 175.835 31.6159C176.478 31.3443 177.048 30.9267 177.501 30.3963C178.348 29.3525 178.771 27.8059 178.771 25.7566C178.771 23.7195 178.332 22.1821 177.455 21.1444C176.998 20.622 176.428 20.2105 175.789 19.941C175.15 19.6715 174.457 19.5512 173.764 19.5891C173.048 19.5502 172.332 19.6769 171.673 19.9595C171.013 20.242 170.428 20.6728 169.962 21.2183C169.058 22.3037 168.606 23.8529 168.606 25.866V25.8672ZM198.189 19.9203H191.554V35.1985H187.043V19.9203H183.876V16.2737H187.043V13.641C187.011 12.7361 187.167 11.8344 187.501 10.9929C187.836 10.1514 188.341 9.38832 188.985 8.75194C189.644 8.11575 190.425 7.6191 191.281 7.29169C192.137 6.96428 193.049 6.81284 193.965 6.84644C194.445 6.84288 194.925 6.87044 195.401 6.92894C195.777 6.97518 196.147 7.0585 196.506 7.17767V11.0278C196.258 10.9005 195.999 10.7958 195.732 10.7149C195.322 10.5863 194.893 10.5244 194.463 10.5315C194.061 10.507 193.659 10.5728 193.286 10.7242C192.913 10.8755 192.579 11.1085 192.308 11.4061C191.754 12.1497 191.486 13.0677 191.554 13.9924V16.2755H198.189V12.0209L202.663 10.6587V16.2737H207.173V19.9191H202.663V28.7743C202.578 29.6457 202.803 30.519 203.298 31.2414C203.559 31.4984 203.873 31.6956 204.218 31.8196C204.563 31.9435 204.93 31.9913 205.295 31.9595C205.613 31.9494 205.928 31.8883 206.227 31.7786C206.559 31.6698 206.877 31.5215 207.175 31.3368V35.0176C206.728 35.2307 206.254 35.3794 205.766 35.4595C205.127 35.5926 204.476 35.6604 203.824 35.6617C201.946 35.6617 200.538 35.1616 199.598 34.1614C198.659 33.1612 198.19 31.6538 198.19 29.6391L198.189 19.9203Z" fill="#737373"/>
<path d="M21.7382 0H0.826599V20.9116H21.7382V0Z" fill="#F26522"/>
<path d="M44.826 0H23.9144V20.9116H44.826V0Z" fill="#8DC63F"/>
<path d="M21.7382 23.0878H0.826599V43.9994H21.7382V23.0878Z" fill="#00AEEF"/>
<path d="M44.826 23.0878H23.9144V43.9994H44.826V23.0878Z" fill="#FFC20E"/>
</g>
<defs>
<clipPath id="clip0_792_82658">
<rect width="206.347" height="44" fill="white" transform="translate(0.826599)"/>
</clipPath>
</defs>
</svg>
