<?xml version="1.0" encoding="utf-8"?>
<!-- Generator: Adobe Illustrator 26.5.0, SVG Export Plug-In . SVG Version: 6.00 Build 0)  -->
<svg version="1.1" id="Layer_1" xmlns="http://www.w3.org/2000/svg" xmlns:xlink="http://www.w3.org/1999/xlink" x="0px" y="0px"
	 viewBox="0 0 550 130" style="enable-background:new 0 0 550 130;" xml:space="preserve">
<style type="text/css">
	.st0{fill:#FFFFFF;}
</style>
<g>
	<g>
		<path class="st0" d="M8.3,104.9c-0.5,0-0.9-0.2-1.1-0.4c-0.2-0.3-0.2-0.6-0.2-1.2l10-36.6c0.3-1.2,1.6-2.2,2.9-2.2h16.7
			c0.5,0,0.9,0.2,1.1,0.4c0.2,0.2,0.2,0.6,0.2,1.2l-10,36.6c-0.3,1.2-1.6,2.2-2.9,2.2L8.3,104.9L8.3,104.9z"/>
		<path class="st0" d="M68.4,104.9c-0.5,0-0.9-0.2-1.1-0.4c-0.2-0.3-0.2-0.7-0.2-1.2l21.4-76.2c0.3-1.2,1.6-2.2,2.8-2.2H108
			c0.5,0,0.9,0.2,1.1,0.4c0.2,0.3,0.2,0.7,0.2,1.2l-21.4,76.2c-0.3,1.2-1.6,2.2-2.8,2.2L68.4,104.9L68.4,104.9z"/>
		<path class="st0" d="M132.7,67.5c-1.6,0-3,0.3-4.5,1.1c-1.4,0.7-2.6,1.8-3.4,3c-1,1.2-1.7,2.6-2.2,4.2c-0.5,1.6-0.9,3.3-0.9,5
			c0,2.6,0.7,4.7,2.2,6.4c1.5,1.7,3.5,2.6,6.1,2.6c1.6,0,3-0.3,4.5-1.1c1.4-0.7,2.6-1.8,3.4-3c0.9-1.2,1.7-2.6,2.2-4.2
			s0.9-3.3,0.9-5c0-2.6-0.7-4.7-2.2-6.4C137.3,68.4,135.3,67.5,132.7,67.5 M128.8,106.1c-4.2,0-8-0.6-11.2-1.8c-3.2-1.3-6-3-8.2-5.2
			c-2.2-2.2-3.9-4.8-5.1-7.8c-1.2-3-1.8-6.2-1.8-9.6c0-4,0.7-8,2.3-11.7s3.7-6.9,6.6-9.8c2.8-2.9,6.2-5.1,10-6.8
			c3.8-1.7,8.1-2.6,12.7-2.6c4.2,0,7.9,0.6,11.2,1.8c3.3,1.3,6.1,3,8.2,5.2c2.2,2.2,3.9,4.8,5.1,7.8c1.2,3,1.8,6.2,1.8,9.6
			c0,4-0.7,8-2.3,11.7c-1.6,3.7-3.7,6.9-6.6,9.8c-2.9,2.9-6.2,5.1-10,6.8C137.6,105.3,133.4,106.1,128.8,106.1"/>
		<path class="st0" d="M199.3,67.5c-1.7,0-3.3,0.3-4.7,1.1c-1.4,0.7-2.7,1.8-3.7,3c-1,1.3-1.8,2.7-2.3,4.3c-0.6,1.6-0.9,3.3-0.9,5
			c0,2.6,0.7,4.7,2.3,6.4c1.6,1.7,3.5,2.4,6,2.4c1.7,0,3.3-0.3,4.7-1.1s2.7-1.8,3.7-3c1-1.3,1.8-2.7,2.4-4.3c0.6-1.6,0.9-3.3,0.9-5
			c0-2.6-0.7-4.7-2.3-6.4C203.6,68.2,201.6,67.5,199.3,67.5 M200.4,106.1c-3.7,0-6.9-0.7-9.3-2.2c-2.4-1.5-4.5-3.4-5.9-5.6
			c-0.2-0.2-0.5-0.4-0.9-0.4c-0.1,0-0.1,0-0.2,0c-0.4,0.1-0.6,0.3-0.9,0.7l-1.1,4c-0.3,1.2-1.6,2.2-2.9,2.2h-16.7
			c-0.5,0-0.9-0.2-1.1-0.4c-0.2-0.3-0.2-0.6-0.2-1.2l20.8-76.2c0.3-1.2,1.6-2.2,2.8-2.2h16.7c0.5,0,0.9,0.2,1.1,0.4
			c0.2,0.3,0.2,0.7,0.2,1.2l-7.7,27.2c-0.2,1-0.2,1.8,0.2,2.2c0.2,0.3,0.6,0.6,1.2,0.6s1.1-0.2,1.8-0.9c0,0,1.9-1.6,4.6-2.9
			c2.6-1.3,5.3-1.8,8.1-1.8c2.2,0,4.4,0.4,6.5,1.4c2,1,3.8,2.2,5.3,3.8c1.5,1.7,2.8,3.7,3.7,6.3c1,2.6,1.4,5.4,1.4,8.7
			c0,4.9-0.7,9.5-2.2,13.7c-1.4,4.2-3.4,7.9-6,11.1c-2.4,3.1-5.4,5.6-8.8,7.3C207.9,105.2,204.3,106.1,200.4,106.1"/>
		<path class="st0" d="M230.1,104.9c-0.5,0-0.9-0.2-1.1-0.4c-0.2-0.3-0.2-0.7-0.2-1.2l14.7-53.4c0.3-1.2,1.6-2.2,2.8-2.2H263
			c0.5,0,0.9,0.2,1.1,0.4c0.2,0.3,0.2,0.7,0.2,1.2l-14.7,53.4c-0.3,1.2-1.6,2.2-2.8,2.2H230.1z"/>
		<path class="st0" d="M259.7,104.9c-0.5,0-0.9-0.2-1.1-0.4c-0.2-0.3-0.2-0.7-0.2-1.2L278.9,26c0.3-1.2,1.6-2.2,2.8-2.2h16.7
			c0.5,0,0.9,0.2,1.1,0.4c0.2,0.3,0.2,0.6,0.2,1.2l-20.4,77.3c-0.3,1.2-1.6,2.2-2.8,2.2L259.7,104.9L259.7,104.9z"/>
		<path class="st0" d="M289.7,104.9c-0.5,0-0.9-0.2-1.1-0.4c-0.2-0.3-0.2-0.7-0.2-1.2l14.7-53.4c0.3-1.2,1.6-2.2,2.8-2.2h16.7
			c0.5,0,0.9,0.2,1.1,0.4c0.2,0.3,0.2,0.7,0.2,1.2l-14.7,53.4c-0.3,1.2-1.6,2.2-2.8,2.2H289.7z"/>
		<path class="st0" d="M319.3,104.9c-0.5,0-0.9-0.2-1.1-0.4c-0.2-0.3-0.2-0.7-0.2-1.2l2.2-8.4c0.3-1.4,1.7-3.4,2.8-4.2l23.7-18.8
			c1.4-1.1,1.3-1.9,1.1-2.4c-0.2-0.4-0.6-1.3-2.3-1.3H330c-0.5,0-0.9-0.2-1.1-0.4c-0.2-0.3-0.2-0.7-0.2-1.2l3.2-12
			c0.3-1.2,1.6-2.2,2.8-2.2h45.7c0.5,0,0.9,0.2,1.1,0.4c0.2,0.3,0.2,0.7,0.2,1.2l-2.2,8.4c-0.3,1.4-1.7,3.4-2.8,4.2l-23.8,18.8
			c-1.4,1.1-1.3,1.9-1.1,2.4c0.2,0.4,0.6,1.3,2.3,1.3h16.5c0.5,0,0.9,0.2,1.1,0.4c0.2,0.3,0.2,0.6,0.2,1.2l-3.3,12
			c-0.3,1.2-1.6,2.2-2.8,2.2H319.3L319.3,104.9z"/>
		<path class="st0" d="M434.2,104.9c-0.3,0-0.5-0.1-0.6-0.2c-0.2-0.2-0.2-0.4-0.1-0.7l1.4-5.3c0.2-0.6,1-1.4,1.8-1.4h5.3
			c0.3,0,0.5,0.1,0.6,0.2c0.2,0.2,0.2,0.4,0.1,0.7l-1.4,5.3c-0.2,0.6-1,1.4-1.8,1.4H434.2z"/>
		<path class="st0" d="M409.6,64.7c-1.9,0-4.3,0.2-6.3,1.4c-2.1,1.4-3.1,2.6-4.2,5.7c-0.1,0.3-0.9,2.6-0.2,2.8
			c1.2,0.3,2.4,0.2,2.8,0.2h10.4c1.8,0,3.8-0.4,4.2-1.9c0-0.1,0.2-0.6,0.2-0.6v-0.9c0-1.8-0.6-3.4-1.8-4.7
			C413.6,65.5,411.9,64.7,409.6,64.7 M401.3,82.9c-1.1,0-2.1,0.4-2.7,1.3c-0.6,0.7-0.9,1.8-0.6,3c0,0.2,0.2,1.5,1.8,3
			c1.6,1.5,4.6,2.6,6.4,2.7c0,0,5.9,1.2,18.4-2.2c3.3-1,4.8,3.4,2.3,6.7c-6.1,8.3-22.3,8.9-22.3,8.9c-4,0-7.7-0.6-10.9-1.7
			c-3.2-1.1-5.9-2.7-8.1-4.7s-3.8-4.5-5-7.2c-1.2-2.8-1.8-6-1.8-9.4c0-4,0.7-8,2.2-11.8c1.4-3.8,3.6-7.3,6.4-10.3
			c2.8-3,6.2-5.4,10.1-7.3c3.9-1.8,8.5-2.8,13.5-2.8c4.3,0,8,0.6,10.9,2c3,1.4,5.3,3.1,7,5.2c1.7,2.1,3.1,4.6,3.8,7.2
			c0.7,2.7,1.2,5.3,1.2,8.1l-0.2,6.3c-0.1,3-4.8,3.1-4.8,3.1L401.3,82.9z"/>
		<path class="st0" d="M37.3,104.9c-0.5,0-0.9-0.2-1.1-0.4c-0.2-0.3-0.2-0.7-0.2-1.2l14.7-53.4c0.3-1.2,1.6-2.2,2.8-2.2h16.7
			c0.5,0,0.9,0.2,1.1,0.4c0.2,0.3,0.2,0.7,0.2,1.2l-14.7,53.4c-0.3,1.2-1.6,2.2-2.8,2.2H37.3z"/>
		<g>
			<path class="st0" d="M478.7,73.4c-0.9,0-1.7,0.6-1.8,1.4l-3.3,12.1c-0.2,0.7-0.6,0.9-1,0.1l-5.9-12.3c-0.3-0.7-1.4-1.4-2.1-1.4
				h-6.9c-0.9,0-1.7,0.6-1.8,1.4l-7.8,28.6c-0.2,0.7,0.2,1.4,1.1,1.4h7.4c0.9,0,1.7-0.6,1.8-1.4l3.4-12.8c0.2-0.7,0.6-0.9,1-0.1
				l6.2,13c0.3,0.7,1.4,1.4,2.1,1.4h6.4c0.9,0,1.7-0.6,1.8-1.4l7.8-28.6c0.2-0.7-0.2-1.4-1.1-1.4L478.7,73.4L478.7,73.4z"/>
			<path class="st0" d="M520,82c0.9,0,1.4,0.6,1.1,1.4l-5.4,20c-0.2,0.7,0.2,1.4,1.1,1.4h7.6c0.9,0,1.7-0.6,1.8-1.4l5.4-20
				c0.2-0.7,1.1-1.4,1.8-1.4h6.3c0.9,0,1.7-0.6,1.8-1.4l1.5-5.7c0.2-0.7-0.3-1.4-1.1-1.4h-25.1h-1.9h-1.9h-20.2
				c-0.9,0-1.7,0.6-1.8,1.4l-7.8,28.6c-0.2,0.7,0.2,1.4,1.1,1.4h24.1c0.9,0,1.7-0.6,1.8-1.4l1.5-5.7c0.2-0.7-0.2-1.4-1.1-1.4h-13.7
				c-0.9,0-1.4-0.6-1.1-1.4l0.2-0.6c0.2-0.7,1.1-1.4,1.9-1.4h12.5c0.9,0,1.7-0.6,1.8-1.4l1.3-4.7c0.2-0.7-0.2-1.4-1.1-1.4h-12.5
				c-0.9,0-1.4-0.6-1.1-1.4l0.1-0.3c0.2-0.7,1-1.4,1.8-1.4L520,82L520,82z"/>
			<path class="st0" d="M245.7,34.8c0,0.5,0.4,1.2,1,1.4l19.3,6.8c0.5,0.2,1-0.1,1-0.6v-4.5c0-0.5-0.4-1.2-1-1.4l-7.9-2.8
				c-0.5-0.2-0.5-0.5,0-0.6l8-2.8c0.5-0.2,1-0.7,1-1.4v-4.5c0-0.5-0.4-0.9-1-0.6l-19.3,6.8c-0.5,0.2-1,0.7-1,1.4v2.8H245.7z"/>
			<path class="st0" d="M307.5,23.9c-0.5-0.2-1,0.1-1,0.6V29c0,0.5,0.4,1.2,1,1.4l8.1,2.8c0.5,0.2,0.5,0.5,0,0.6l-8.1,2.8
				c-0.5,0.2-1,0.7-1,1.4v4.5c0,0.5,0.4,0.9,1,0.6l19.3-6.8c0.5-0.2,1-0.7,1-1.4V32c0-0.5-0.4-1.2-1-1.4L307.5,23.9z"/>
		</g>
	</g>
</g>
</svg>
