<?xml version="1.0" encoding="UTF-8"?>
<svg id="Layer_2" data-name="Layer 2" xmlns="http://www.w3.org/2000/svg" viewBox="0 0 236.853 60">
  <defs>
    <style>
      .cls-1 {
        fill: #f97141;
      }
    </style>
  </defs>
  <g id="a7b87b8f-1c74-43d2-a089-4b3a49a5e9da">
    <polygon class="cls-1" points="223.035 12.29 211.496 12.29 226.247 30.137 211.496 47.982 223.035 47.982 236.853 30.137 223.035 12.29"/>
    <polygon class="cls-1" points="170.732 12.29 182.272 12.29 167.521 30.137 182.272 47.982 170.732 47.982 156.915 30.137 170.732 12.29"/>
    <polygon class="cls-1" points="13.818 12.29 25.358 12.29 10.606 30.137 25.358 47.982 13.818 47.982 0 30.137 13.818 12.29"/>
    <path class="cls-1" d="M96.334,15.751c-1-1.058-2.176-1.935-3.475-2.592-2.133-1.06-4.489-1.591-6.871-1.548-3.103-.042-6.154,.804-8.792,2.439-2.609,1.621-4.729,3.919-6.135,6.65-1.477,2.807-2.216,5.985-2.216,9.534-.05,3.287,.711,6.535,2.216,9.457,1.406,2.731,3.526,5.029,6.135,6.65,2.638,1.635,5.689,2.481,8.792,2.439,2.386,.041,4.745-.504,6.871-1.588,1.296-.671,2.47-1.554,3.475-2.612v3.461h9.621V12.344h-9.621v3.407Zm-1.981,21.385c-1.675,1.8-3.867,2.699-6.576,2.697-1.646,.034-3.27-.387-4.692-1.217-1.356-.813-2.457-1.989-3.178-3.396-.791-1.567-1.185-3.305-1.146-5.06-.033-1.732,.361-3.445,1.146-4.989,.721-1.407,1.822-2.583,3.178-3.396,1.422-.831,3.045-1.253,4.692-1.22,1.67-.039,3.319,.383,4.765,1.22,1.355,.813,2.456,1.989,3.178,3.396,.78,1.545,1.169,3.258,1.132,4.989,0,2.852-.838,5.178-2.513,6.975h.014Z"/>
    <path class="cls-1" d="M134.647,38.91c-1.391,.583-2.887,.872-4.395,.849-1.67,.028-3.317-.393-4.768-1.22-1.399-.806-2.549-1.98-3.325-3.396-.832-1.528-1.252-3.246-1.22-4.986-.044-1.742,.377-3.464,1.22-4.989,.793-1.384,1.941-2.532,3.325-3.325,1.452-.826,3.098-1.247,4.768-1.22,1.48-.018,2.949,.258,4.321,.812,1.283,.527,2.432,1.336,3.362,2.366l6.209-6.282c-1.7-1.904-3.794-3.415-6.135-4.431-2.449-1.053-5.091-1.582-7.756-1.554-3.424-.044-6.8,.81-9.791,2.476-2.856,1.577-5.241,3.885-6.91,6.687-1.675,2.807-2.513,5.985-2.513,9.534-.098,6.694,3.515,12.892,9.386,16.107,2.907,1.628,6.183,2.441,9.828,2.439,2.665,.028,5.307-.5,7.756-1.551,2.385-1.049,4.524-2.585,6.282-4.508l-6.282-6.282c-.917,1.07-2.067,1.916-3.362,2.473Z"/>
    <polyline class="cls-1" points="157.769 29.557 157.769 .167 148.088 .167 148.088 48.036 157.769 48.036 157.769 31.47"/>
    <polygon class="cls-1" points="201.897 0 192.216 0 192.216 12.244 183.868 12.244 183.868 20.742 192.216 20.742 192.216 47.937 201.897 47.937 201.897 20.742 210.248 20.742 210.248 12.244 201.897 12.244 201.897 0"/>
    <path class="cls-1" d="M56.559,14.208c-2.666-1.643-5.746-2.49-8.877-2.439-2.401-.037-4.774,.521-6.908,1.624-1.177,.62-2.26,1.405-3.215,2.332v-3.435h-9.672V60h9.607v-14.955c.964,.924,2.06,1.7,3.251,2.303,2.151,1.078,4.53,1.623,6.936,1.59,3.128,.049,6.205-.798,8.869-2.439,2.612-1.627,4.742-3.923,6.169-6.65,1.533-2.915,2.311-6.167,2.264-9.46,0-3.547-.755-6.724-2.264-9.531-1.424-2.726-3.551-5.022-6.16-6.65Zm-2.623,21.172c-.728,1.414-1.843,2.592-3.215,3.396-1.439,.83-3.076,1.252-4.737,1.22-1.644,.033-3.265-.389-4.683-1.22-1.357-.812-2.458-1.988-3.178-3.396-.791-1.568-1.185-3.307-1.146-5.062-.033-1.731,.361-3.443,1.146-4.986,.726-1.415,1.841-2.593,3.215-3.396,1.409-.824,3.015-1.247,4.647-1.225,1.658-.031,3.292,.391,4.729,1.22,1.372,.804,2.487,1.982,3.215,3.396,.78,1.544,1.169,3.256,1.132,4.986,.046,1.756-.339,3.496-1.123,5.068Z"/>
  </g>
</svg>