<?xml version="1.0" encoding="UTF-8"?>
<svg id="Layer_2" data-name="Layer 2" xmlns="http://www.w3.org/2000/svg" viewBox="0 0 327.923 72">
  <defs>
    <style>
      .cls-1, .cls-2 {
        fill: #fff;
      }

      .cls-3 {
        fill: #f6921e;
      }

      .cls-3, .cls-2 {
        fill-rule: evenodd;
      }
    </style>
  </defs>
  <g id="Layer_1-2" data-name="Layer 1">
    <g>
      <path class="cls-1" d="M91.208,33.774h-18.3c-1.969,0-3.41,.364-4.332,1.097-.918,.733-1.377,1.895-1.377,3.488,0,1.278,.39,2.237,1.173,2.873,.786,.636,1.954,.955,3.504,.955h9.81c4.039,0,6.917,.763,8.626,2.293,1.71,1.529,2.564,4.079,2.564,7.644,0,3.617-.988,6.273-2.959,7.969-1.974,1.698-5.077,2.548-9.309,2.548h-19.718v-6.238h18.542c2.109,0,3.597-.31,4.462-.924,.863-.615,1.296-1.632,1.296-3.057,0-1.468-.395-2.515-1.187-3.134-.791-.623-2.148-.937-4.065-.937h-8.753c-4.043,0-7-.808-8.867-2.425-1.871-1.616-2.805-4.161-2.805-7.65,0-3.726,.982-6.444,2.946-8.164,1.966-1.717,5.09-2.578,9.371-2.578h19.38v6.239h0Z"/>
      <path class="cls-1" d="M125.627,36.89h12.798c3.87,0,6.633,.73,8.287,2.185,1.659,1.459,2.489,3.872,2.489,7.244v16.323h-6.817v-15.486c0-1.927-.302-3.175-.897-3.748-.597-.571-1.789-.859-3.585-.859h-5.456v20.093h-6.818v-25.752h0Z"/>
      <path class="cls-1" d="M168.327,57.129h7.238v5.513h-9.246c-2.347,0-4.27-.246-5.775-.726-1.512-.486-2.819-1.271-3.934-2.352-1.199-1.174-2.133-2.611-2.814-4.308-.676-1.696-1.013-3.485-1.013-5.385,0-1.986,.336-3.843,1.006-5.57,.666-1.722,1.607-3.17,2.821-4.33,1.129-1.083,2.456-1.866,3.982-2.351,1.521-.486,3.429-.728,5.727-.728h9.246v5.584h-7.238c-3.204,0-5.409,.555-6.618,1.658-1.209,1.105-1.818,3.023-1.818,5.754,0,1.573,.249,2.878,.741,3.906,.495,1.028,1.26,1.862,2.292,2.5,.511,.305,1.103,.517,1.78,.645,.68,.121,1.883,.189,3.623,.189"/>
      <path class="cls-1" d="M181.654,42.042h-4.86v-5.151h4.86v-2.683c0-2.621,.483-4.389,1.459-5.303,.966-.913,2.828-1.369,5.584-1.369h6.454v4.928h-3.23c-1.166,0-1.995,.186-2.484,.547-.501,.362-.741,.963-.741,1.801v2.079h6.454v5.151h-6.454v20.601h-7.043v-20.601h0Z"/>
      <path class="cls-1" d="M221.053,62.642h-12.834c-3.76,0-6.48-.748-8.152-2.239-1.674-1.494-2.51-3.886-2.51-7.177v-16.336h6.743v15.795c0,1.719,.304,2.862,.897,3.436,.599,.575,1.791,.862,3.574,.862h5.467v-20.092h6.815v25.752h0Z"/>
      <path class="cls-1" d="M226.043,57.273h14.326c1.277,0,2.204-.196,2.788-.593,.584-.395,.879-1.026,.879-1.901,0-.866-.297-1.505-.889-1.907-.59-.402-1.514-.604-2.778-.604h-5.884c-3.476,0-5.82-.532-7.042-1.603-1.223-1.067-1.834-2.964-1.834-5.69,0-2.774,.738-4.813,2.213-6.122,1.476-1.308,3.765-1.962,6.856-1.962h14.652v5.371h-12.044c-1.965,0-3.24,.171-3.831,.519-.589,.347-.885,.964-.885,1.85,0,.803,.264,1.396,.778,1.776,.517,.379,1.338,.568,2.457,.568h6.169c2.812,0,4.959,.652,6.436,1.959,1.485,1.311,2.222,3.197,2.222,5.671,0,2.377-.657,4.313-1.97,5.802-1.308,1.487-2.994,2.235-5.061,2.235h-17.558v-5.37h0Z"/>
      <path class="cls-1" d="M261.837,62.643h-7.107v-25.752h7.107v25.752h0Zm0-28.652h-7.107v-6.384h7.107v6.384h0Z"/>
      <path class="cls-1" d="M272.449,49.79c0,2.448,.577,4.358,1.728,5.721,1.151,1.373,2.757,2.053,4.824,2.053,2.046,0,3.654-.68,4.824-2.053,1.168-1.363,1.752-3.274,1.752-5.721s-.579-4.35-1.742-5.709c-1.161-1.359-2.774-2.04-4.835-2.04-2.049,0-3.654,.684-4.812,2.048-1.163,1.371-1.74,3.271-1.74,5.701m20.234,0c0,4.038-1.229,7.262-3.689,9.674-2.456,2.409-5.777,3.61-9.946,3.61s-7.499-1.206-9.984-3.623c-2.485-2.415-3.725-5.633-3.725-9.661s1.24-7.271,3.725-9.699c2.485-2.424,5.813-3.637,9.984-3.637,4.139,0,7.446,1.213,9.925,3.637,2.474,2.428,3.71,5.66,3.71,9.699"/>
      <path class="cls-1" d="M296.047,36.89h12.8c3.869,0,6.633,.73,8.287,2.185,1.658,1.459,2.489,3.872,2.489,7.244v16.323h-6.821v-15.486c0-1.927-.297-3.175-.891-3.748-.599-.571-1.79-.859-3.586-.859h-5.457v20.093h-6.819v-25.752h0Z"/>
      <polygon class="cls-2" points="0 8.461 16.012 8.461 16.012 24.49 0 24.49 0 8.461 0 8.461"/>
      <polygon class="cls-3" points="64.691 10.571 54.12 23.013 41.678 12.442 52.25 0 64.691 10.571 64.691 10.571"/>
      <polygon class="cls-2" points="19.046 8.461 35.058 8.461 35.058 24.49 19.046 24.49 19.046 8.461 19.046 8.461"/>
      <polygon class="cls-2" points="0 27.513 16.012 27.513 16.012 43.542 0 43.542 0 27.513 0 27.513"/>
      <polygon class="cls-2" points="19.046 27.513 35.058 27.513 35.058 43.542 19.046 43.542 19.046 27.513 19.046 27.513"/>
      <polygon class="cls-3" points="38.149 27.513 54.161 27.513 54.161 43.542 38.149 43.542 38.149 27.513 38.149 27.513"/>
      <polygon class="cls-2" points=".023 46.582 16.038 46.582 16.038 62.605 .023 62.605 .023 46.582 .023 46.582"/>
      <polygon class="cls-2" points="19.072 46.582 35.086 46.582 35.086 62.605 19.072 62.605 19.072 46.582 19.072 46.582"/>
      <polygon class="cls-2" points="38.175 46.582 54.185 46.582 54.185 62.605 38.175 62.605 38.175 46.582 38.175 46.582"/>
      <path class="cls-1" d="M323.602,35.321c.529,0,.807-.245,.807-.699,0-.486-.267-.702-.87-.702h-.16v1.401h.223Zm1.873,2.774h-.843l-1.253-1.83v1.83h-.688v-4.843h.825c1.043,0,1.596,.482,1.596,1.381,0,.723-.412,1.2-1.113,1.319l1.475,2.143h0Zm-4.316-4.795c-.573,.629-.899,1.463-.899,2.297,0,1.964,1.548,3.525,3.494,3.525,1.917,0,3.49-1.573,3.49-3.501,0-1.888-1.573-3.487-3.438-3.487-1.064,0-1.952,.389-2.648,1.166m6.765,2.322c0,2.314-1.862,4.182-4.17,4.182-2.322,0-4.173-1.868-4.173-4.206,0-2.297,1.888-4.137,4.238-4.137,2.243,0,4.104,1.899,4.104,4.161"/>
      <path class="cls-1" d="M108.014,56.983h5.445v-20.092h6.818v25.06c0,3.414-.795,5.942-2.386,7.585-1.593,1.641-4.03,2.465-7.307,2.465h-13.301v-5.224h12.135c1.299,0,2.296-.317,2.997-.95,.695-.635,1.043-1.55,1.043-2.757v-.427h-5.992c-3.85,0-6.593-.758-8.23-2.275-1.641-1.516-2.462-4.049-2.462-7.588v-15.889h6.746v15.365c0,1.943,.292,3.216,.869,3.823,.578,.6,1.786,.904,3.624,.904"/>
    </g>
  </g>
</svg>