<?xml version="1.0" encoding="UTF-8"?>
<svg id="Layer_2" data-name="Layer 2" xmlns="http://www.w3.org/2000/svg" xmlns:xlink="http://www.w3.org/1999/xlink" viewBox="0 0 59.49 80">
  <defs>
    <style>
      .cls-1 {
        fill: #67e5ad;
      }

      .cls-2 {
        fill: #f85977;
      }

      .cls-3 {
        fill: #fff;
      }

      .cls-4 {
        fill: #159bff;
      }

      .cls-5 {
        fill: #7a67f8;
      }

      .cls-6 {
        fill: url(#linear-gradient-3);
      }

      .cls-6, .cls-7, .cls-8, .cls-9 {
        fill-opacity: .4;
      }

      .cls-7 {
        fill: url(#linear-gradient-4);
      }

      .cls-8 {
        fill: url(#linear-gradient-2);
      }

      .cls-9 {
        fill: url(#linear-gradient);
      }
    </style>
    <linearGradient id="linear-gradient" x1="4760.549" y1="-493.619" x2="4762.403" y2="-491.665" gradientTransform="translate(4789.213 511.45) rotate(-180) scale(1 -1)" gradientUnits="userSpaceOnUse">
      <stop offset="0" stop-color="#000" stop-opacity=".9"/>
      <stop offset=".79" stop-color="#000" stop-opacity="0"/>
    </linearGradient>
    <linearGradient id="linear-gradient-2" x1="4181.91" y1="7078.849" x2="4183.764" y2="7080.803" gradientTransform="translate(7113.13 4203.38) rotate(-90) scale(1 -1)" xlink:href="#linear-gradient"/>
    <linearGradient id="linear-gradient-3" x1="-2799.093" y1="-1026.934" x2="-2797.239" y2="-1024.98" gradientTransform="translate(1052.212 2822.287) rotate(90) scale(1 -1)" xlink:href="#linear-gradient"/>
    <linearGradient id="linear-gradient-4" x1="-3350.948" y1="6558.079" x2="-3349.094" y2="6560.032" gradientTransform="translate(3381.84 6584.918) scale(1 -1)" xlink:href="#linear-gradient"/>
  </defs>
  <g id="Layer_1-2" data-name="Layer 1">
    <g id="Layer_2-2" data-name="Layer 2">
      <g id="Uno-Platform-Logo-Reverse">
        <path class="cls-5" d="M38.366,35.066h-.011c-2.575-.005-4.876-1.79-7.753-4.668l-6.251-6.201,1.954-1.974,6.26,6.207c2.774,2.775,4.398,3.855,5.798,3.858h0c1.414,0,3.125-1.138,5.917-3.927l3.196-3.233c1.609-1.61,2.318-3.018,2.173-4.297-.119-1.043-.806-2.162-2.167-3.522l-.029-.031c-1.469-1.562-3.266-3.304-5.142-4.269-.348-1.784-1.491-3.188-1.652-3.449,3.432,.504,6.493,3.341,8.804,5.796,2.515,2.521,5.236,6.475-.016,11.727l-3.194,3.233c-2.927,2.936-5.269,4.751-7.885,4.751Z"/>
        <path class="cls-2" d="M29.923,25.812l5.856-5.921c2.775-2.775,3.855-4.4,3.858-5.799s-1.135-3.125-3.927-5.921l-3.233-3.196c-3.29-3.29-5.281-2.539-7.819-.006l-.031,.03c-1.39,1.306-2.922,2.869-3.923,4.52-.93,.066-2.13,.383-3.605,1.37,.817-3.064,3.371-5.795,5.604-7.9,2.521-2.515,6.475-5.236,11.727,.015l3.233,3.196c2.937,2.937,4.752,5.281,4.742,7.898,0,2.575-1.789,4.876-4.668,7.753l-5.838,5.918-1.977-1.956Z"/>
        <path class="cls-4" d="M18.305,34.919c-3.233-.687-6.114-3.37-8.314-5.712-1.149-1.151-2.694-2.934-2.948-5.16-.246-2.178,.723-4.326,2.963-6.567l3.196-3.233c2.933-2.933,5.272-4.742,7.887-4.742h.011c2.575,0,4.876,1.789,7.753,4.667l6.359,6.295-1.954,1.974-6.359-6.299c-2.781-2.777-4.406-3.855-5.805-3.855h-.005c-1.413,0-3.125,1.138-5.916,3.927l-3.196,3.233c-1.609,1.61-2.318,3.018-2.173,4.296,.119,1.043,.806,2.163,2.166,3.523l.03,.03c1.401,1.488,3.094,3.139,4.874,4.127,.152,1.57,1.083,2.976,1.43,3.496Z"/>
        <path class="cls-1" d="M30.754,44.957c-1.737,0-3.712-.8-5.917-3.005l-3.233-3.194c-6.323-6.323-6.337-9.394-.08-15.651l6.137-6.2,1.976,1.954-6.143,6.209c-2.775,2.775-3.856,4.4-3.858,5.799s1.135,3.125,3.927,5.921l3.233,3.196c3.29,3.289,5.281,2.54,7.819,.006l.031-.03c1.492-1.401,3.157-3.12,4.143-4.905,1.499-.127,2.618-.76,3.461-1.293-.721,3.191-3.372,6.035-5.685,8.212-1.464,1.457-3.409,2.981-5.81,2.981Z"/>
        <polygon class="cls-9" points="26.184 18.395 27.661 16.902 29.635 18.857 28.209 20.298 26.184 18.395"/>
        <polygon class="cls-8" points="33.718 18.99 35.21 20.467 33.256 22.444 31.815 21.016 33.718 18.99"/>
        <polygon class="cls-6" points="25.842 25.674 24.35 24.197 26.304 22.223 27.745 23.649 25.842 25.674"/>
        <polygon class="cls-7" points="33.372 26.276 31.894 27.768 29.921 25.813 31.347 24.373 33.372 26.276"/>
        <path class="cls-3" d="M50.81,53.348c-4.794,0-8.68,3.886-8.68,8.68s3.886,8.68,8.68,8.68,8.68-3.886,8.68-8.68v-.005c-.008-4.79-3.891-8.669-8.68-8.675Zm0,13.776c-2.814,0-5.096-2.281-5.096-5.096s2.281-5.096,5.096-5.096,5.096,2.281,5.096,5.096h0c-.006,2.811-2.285,5.087-5.096,5.09v.005ZM13.803,53.931h3.585v8.092c0,4.794-3.888,8.68-8.681,8.679-4.793,0-8.678-3.886-8.679-8.679v-.108c-.046-2.034-.025-4.972,0-7.077l.011-.909H3.696v8.092c0,2.81,2.248,5.096,5.012,5.096,2.813-.003,5.093-2.283,5.096-5.096v-8.091Zm24.637,10.163c.014,.926,.026,1.724-.016,5.113l-.011,.909h-3.659v-8.093c0-2.81-2.248-5.096-5.01-5.096-2.813,.003-5.093,2.283-5.096,5.096v8.093h-3.585v-8.093c0-4.794,3.888-8.68,8.681-8.679,4.793,0,8.678,3.886,8.679,8.679,0,1.032,.008,1.564,.016,2.071Z"/>
        <path class="cls-3" d="M3.483,76.605c0,.521-.162,.919-.487,1.194-.325,.275-.787,.413-1.388,.413h-.44v1.724H.143v-4.839H1.687c.586,0,1.032,.126,1.337,.378,.305,.252,.458,.629,.458,1.129Zm-2.315,.767h.339c.315,0,.551-.062,.708-.186,.159-.132,.246-.332,.235-.539,.017-.198-.056-.393-.197-.532-.131-.115-.336-.172-.616-.172h-.469v1.43Z"/>
        <path class="cls-3" d="M7.782,79.932v-4.835h1.026v3.988h1.96v.847h-2.986Z"/>
        <path class="cls-3" d="M17.956,79.932l-.351-1.149h-1.763l-.351,1.151h-1.103l1.706-4.85h1.257l1.714,4.85-1.108-.002Zm-.596-2.011c-.323-1.042-.506-1.631-.547-1.769-.04-.137-.07-.246-.087-.323-.072,.282-.28,.98-.625,2.093h1.26Z"/>
        <path class="cls-3" d="M24.92,79.932h-1.025v-3.982h-1.313v-.853h3.651v.852h-1.314v3.982Z"/>
        <path class="cls-3" d="M31.373,79.932h-1.009v-4.835h2.772v.84h-1.763v1.247h1.64v.836h-1.64v1.912Z"/>
        <path class="cls-3" d="M41.857,77.508c0,.8-.199,1.415-.596,1.845-.397,.43-.966,.646-1.706,.647-.74,0-1.309-.216-1.706-.647-.397-.431-.596-1.048-.596-1.852s.199-1.42,.597-1.844c.398-.424,.969-.636,1.711-.637,.744,0,1.312,.214,1.705,.641s.59,1.043,.591,1.846Zm-3.529,0c0,.54,.102,.946,.307,1.22,.205,.274,.51,.411,.916,.411,.818,0,1.227-.544,1.226-1.631s-.406-1.632-1.217-1.635c-.407,0-.715,.137-.923,.412-.207,.276-.31,.682-.31,1.223h0Z"/>
        <path class="cls-3" d="M47.27,78.076v1.856h-1.025v-4.835h1.409c.657,0,1.143,.12,1.458,.359,.315,.239,.472,.602,.473,1.09,.003,.27-.079,.534-.235,.754-.169,.232-.399,.412-.664,.521,.728,1.088,1.202,1.79,1.422,2.107h-1.138l-1.154-1.856-.545,.004Zm0-.833h.331c.324,0,.563-.054,.718-.162,.16-.119,.247-.311,.232-.51,.018-.194-.074-.383-.237-.489-.157-.097-.402-.145-.732-.145h-.311v1.306Z"/>
        <path class="cls-3" d="M56.149,79.932l-1.164-3.794h-.029c.042,.772,.063,1.286,.063,1.544v2.249h-.917v-4.835h1.401l1.145,3.697h.019l1.207-3.697h1.401v4.835h-.955v-2.662c0-.141,.018-.516,.045-1.125h-.03l-1.247,3.787h-.939Z"/>
      </g>
    </g>
  </g>
</svg>